<svg xmlns="http://www.w3.org/2000/svg" xmlns:xlink="http://www.w3.org/1999/xlink" version="1.1" id="Layer_1" x="0px" y="0px" width="100px" height="55.156px" viewBox="5.0 -5.5156 100.0 74.4606" enable-background="new 0 0 100 55.156" xml:space="preserve">
<path fill="#010101" d="M45.688,0c-12.85,0-23.378,10.146-24,22.844c-5.901,0.703-10.968,4.625-13.156,10.094  C3.628,34.162,0,38.598,0,43.875c0,6.221,5.06,11.281,11.281,11.281h35.156V33.375L35.375,44.438V34.75L50,20.156L64.625,34.75  v9.688L53.531,33.312v21.844h24.438c12.154,0,22.031-9.879,22.031-22.031c0-12.153-9.879-22.062-22.031-22.062  c-3.73,0-7.359,0.938-10.562,2.688C63.506,5.53,55.104,0,45.688,0z"/></svg>