<svg xmlns="http://www.w3.org/2000/svg" xmlns:xlink="http://www.w3.org/1999/xlink" version="1.1" id="Layer_1" x="0px" y="0px" viewBox="4.5 -9.0 90.0 121.5" enable-background="new 0 0 90 90" xml:space="preserve" height="100px" width="100px">
<path fill="#ffffff" d="M73.5,16.5C65.9,8.9,55.8,4.7,45,4.7S24.1,8.9,16.5,16.5S4.7,34.2,4.7,45s4.2,20.9,11.8,28.5c7.6,7.6,17.7,11.8,28.5,11.8  s20.9-4.2,28.5-11.8c7.6-7.6,11.8-17.7,11.8-28.5S81.1,24.1,73.5,16.5z M51,79.4c-1.5,0.3-3,0.4-4.5,0.5V67.2  c5.1-0.1,10-0.8,14.5-1.9c-0.7,2-1.6,3.8-2.5,5.6C56.3,74.8,53.7,77.7,51,79.4z M31.6,70.9c-1-1.7-1.8-3.6-2.5-5.6  c4.5,1.1,9.4,1.8,14.5,1.9v12.6c-1.5-0.1-3-0.2-4.5-0.5C36.3,77.7,33.7,74.8,31.6,70.9z M39,10.6c1.5-0.3,3-0.4,4.5-0.5v12.6  c-5.1,0.1-10,0.8-14.5,1.9c0.7-2,1.6-3.8,2.5-5.6C33.7,15.2,36.3,12.3,39,10.6z M58.4,19.1c1,1.7,1.8,3.6,2.5,5.6  c-4.5-1.1-9.4-1.8-14.5-1.9V10.1c1.5,0.1,3,0.2,4.5,0.5C53.7,12.3,56.3,15.2,58.4,19.1z M79.9,43.8H67.2c-0.1-5.2-0.7-10.2-1.9-14.8  c2,0.7,3.8,1.6,5.6,2.5c3.9,2.2,6.8,4.7,8.5,7.5C79.7,40.6,79.8,42.2,79.9,43.8z M64.3,43.8H46.4V25.7C52,25.8,57.3,26.6,62,28  C63.5,32.8,64.2,38.2,64.3,43.8z M43.6,25.7v18.2H25.7c0.1-5.6,0.9-11,2.3-15.9C32.7,26.6,38,25.8,43.6,25.7z M22.8,43.8H10.1  c0.1-1.6,0.2-3.2,0.5-4.8c1.7-2.8,4.6-5.3,8.5-7.5c1.7-1,3.6-1.8,5.6-2.5C23.5,33.6,22.8,38.6,22.8,43.8z M10.1,46.7h12.6  c0.1,5,0.8,9.8,1.9,14.3c-2-0.7-3.8-1.6-5.6-2.5c-3.9-2.2-6.8-4.7-8.5-7.5C10.4,49.6,10.2,48.2,10.1,46.7z M25.7,46.7h17.9v17.6  C38,64.2,32.7,63.4,28,62C26.6,57.4,25.8,52.1,25.7,46.7z M46.4,64.3V46.7h17.9C64.2,52.1,63.4,57.4,62,62  C57.3,63.4,52,64.2,46.4,64.3z M67.2,46.7h12.6c-0.1,1.4-0.2,2.8-0.5,4.2c-1.7,2.8-4.6,5.3-8.5,7.5c-1.7,1-3.6,1.8-5.6,2.5  C66.5,56.5,67.1,51.7,67.2,46.7z M77.7,32.7c-1.5-1.3-3.3-2.6-5.4-3.7c-2.4-1.3-5.1-2.5-7.9-3.4c-0.9-2.9-2.1-5.5-3.4-7.9  c-1.1-2-2.4-3.8-3.7-5.4C66.7,15.9,74.1,23.3,77.7,32.7z M32.7,12.3c-1.3,1.5-2.6,3.3-3.7,5.4c-1.3,2.4-2.5,5.1-3.4,7.9  c-2.9,0.9-5.5,2.1-7.9,3.4c-2,1.1-3.8,2.4-5.4,3.7C15.9,23.3,23.3,15.9,32.7,12.3z M12.3,57.3c1.5,1.3,3.3,2.6,5.4,3.7  c2.4,1.3,5.1,2.5,7.9,3.4c0.9,2.9,2.1,5.5,3.4,7.9c1.1,2,2.4,3.8,3.7,5.4C23.3,74.1,15.9,66.7,12.3,57.3z M57.3,77.7  c1.3-1.5,2.6-3.3,3.7-5.4c1.3-2.4,2.5-5.1,3.4-7.9c2.9-0.9,5.5-2.1,7.9-3.4c2-1.1,3.8-2.4,5.4-3.7C74.1,66.7,66.7,74.1,57.3,77.7z"/></svg>