<svg xmlns="http://www.w3.org/2000/svg" xmlns:xlink="http://www.w3.org/1999/xlink" version="1.0" id="Layer_1" x="0px" y="0px" width="16px" height="16px" viewBox="0.8 -1.6 16.0 21.6" style="enable-background:new 0 0 16 16;" xml:space="preserve">
<g>
	<g>
		<path style="fill:#ffffff;" d="M12.537,9.615c-0.096-0.034-3.081-1.38-3.231-1.451V7.281c0-0.04,0.011-0.103,0.034-0.193    C9.364,7,9.392,6.909,9.418,6.812c0.034-0.109,0.069-0.228,0.108-0.353C9.664,6.187,9.771,5.88,9.849,5.542    c0.079-0.342,0.12-0.7,0.12-1.077c0-0.512-0.053-0.949-0.153-1.302C9.712,2.806,9.571,2.519,9.394,2.3    C9.217,2.081,9.009,1.923,8.774,1.826C8.54,1.727,8.29,1.678,8.023,1.678c-0.269,0-0.522,0.051-0.759,0.151    C7.031,1.929,6.825,2.091,6.65,2.313c-0.176,0.22-0.315,0.507-0.418,0.86c-0.1,0.353-0.151,0.782-0.151,1.292    c0,0.388,0.041,0.753,0.12,1.1c0.08,0.344,0.19,0.652,0.328,0.924c0.038,0.117,0.071,0.226,0.1,0.324    c0.022,0.087,0.046,0.172,0.068,0.254C6.718,7.149,6.733,7.21,6.743,7.252v0.86C6.596,8.183,3.944,9.392,3.781,9.46    C3.62,9.529,2.5,10,2.5,11v1h11v-1C13.5,10,12.736,9.69,12.537,9.615z M15.03,7.586c-0.107-0.047-1.909-0.864-2.016-0.914V6.05    c0-0.028,0.009-0.072,0.025-0.136c0.017-0.062,0.035-0.126,0.055-0.194c0.024-0.077,0.05-0.161,0.076-0.25    c0.098-0.192,0.173-0.407,0.228-0.646c0.054-0.24,0.082-0.492,0.082-0.758c0-0.362-0.034-0.668-0.107-0.917    c-0.07-0.25-0.171-0.452-0.295-0.606c-0.126-0.155-0.271-0.266-0.436-0.334c-0.166-0.07-0.341-0.104-0.528-0.104    c-0.192,0-0.37,0.035-0.535,0.105s-0.31,0.186-0.434,0.342c-0.123,0.154-0.221,0.356-0.292,0.605    c-0.071,0.248-0.107,0.551-0.107,0.909c0,0.272,0.028,0.53,0.084,0.774c0.057,0.242,0.135,0.458,0.231,0.65    c0.026,0.082,0.051,0.159,0.07,0.229c0.017,0.062,0.031,0.12,0.047,0.179c0.016,0.058,0.025,0.102,0.033,0.13v0.606    C11.107,6.685,10.078,7.465,10,7.5c0.733,0.672,1.615,0.809,3.196,2c1.642,0,2.77,0,2.77,0V8.682    C15.966,8.021,15.137,7.633,15.03,7.586z M6,7.5C5.922,7.465,4.864,6.703,4.76,6.654V6.048c0.007-0.028,0.019-0.072,0.033-0.13    S4.823,5.8,4.84,5.738c0.02-0.069,0.044-0.145,0.07-0.228c0.098-0.191,0.175-0.407,0.23-0.649    c0.058-0.244,0.086-0.501,0.086-0.774c0-0.359-0.037-0.662-0.107-0.91c-0.073-0.248-0.17-0.45-0.293-0.605    c-0.125-0.156-0.269-0.27-0.435-0.342c-0.165-0.07-0.344-0.105-0.535-0.105c-0.187,0-0.362,0.034-0.528,0.104    c-0.165,0.068-0.312,0.18-0.437,0.334C2.767,2.717,2.667,2.919,2.596,3.168S2.486,3.725,2.486,4.086    c0,0.265,0.029,0.517,0.084,0.757C2.627,5.083,2.702,5.298,2.799,5.49c0.026,0.087,0.052,0.171,0.075,0.248    C2.893,5.806,2.913,5.871,2.93,5.933C2.947,5.996,2.954,6.04,2.954,6.069V6.69C2.847,6.74,0.743,7.688,0.678,7.711    C0.536,7.766,0,8.042,0,8.701V9.5c0,0,1.13,0,2.773,0C4.356,8.309,5.293,8.153,6,7.5z"/>
	</g>
</g></svg>