<svg xmlns:svg="http://www.w3.org/2000/svg" xmlns="http://www.w3.org/2000/svg" version="1.1" width="100" height="100" viewBox="0 0 100 100">

<title/>
<script type="text/javascript">
var metadata = {
	"Designer": "Anas Ramadan",
	"Organization": "RichStyle.org",
	"Year": "2014",
	"Country": "Syria",
	"License": "CC-BY-3.0",
	"URL": ""
	}
</script>

<path fill="#000" d="M 98.574,79.773 C 96.458,68.854 67.338,70.015 60.32,61.463 58.84,59.658 58.84,59.658 59.832,52.956 61.526,45.454 63.061,50.11 65.483,35.147 67.517,22.581 63.177,11.783 50,11.783 c -13.177,0 -17.517,10.798 -15.483,23.364 2.422,14.963 3.956,10.307 5.651,17.809 0.992,6.702 0.992,6.702 -0.488,8.507 C 32.662,70.015 3.542,68.854 1.426,79.773 1.175,81.065 0,88.217 0,88.217 h 100 c 0,0 -1.175,-7.152 -1.426,-8.444 z"/>

<path fill="#000" d="m 50,11.78125 c -12.342209,0 -16.920683,9.473851 -15.78125,21 3.26206,1.842572 4.286281,6.022943 3.53125,10.6875 -0.174249,1.076502 -0.342557,1.907355 -0.5,2.625 1.054576,2.255158 1.940983,2.602766 2.90625,6.875 0.5769,3.897562 0.815076,5.49378 0.625,6.53125 5.533289,1.612815 12.765779,2.492517 13.5,6.28125 C 54.40675,66.42725 55,70 55,70 L 17.6875,70 C 9.6719113,72.083008 2.4518275,74.547109 1.4375,79.78125 1.1865,81.07325 0,88.21875 0,88.21875 l 100,0 c 0,0 -1.1865,-7.1455 -1.4375,-8.4375 -2.116,-10.919 -31.232,-9.7605 -38.25,-18.3125 -1.48,-1.805 -1.46075,-1.798 -0.46875,-8.5 1.694,-7.502 3.203,-2.8495 5.625,-17.8125 C 67.50275,22.59025 63.177,11.78125 50,11.78125 z"/>

<path fill="#000" d="m 12.6875,67.5 c 8.70582,-2.262378 18.346154,-4.078744 22,-8.53125 0.619303,-0.755299 0.956984,-1.222252 1.09375,-1.96875 -2.440084,-0.711223 -4.551144,-1.566419 -5.625,-2.875 -0.740001,-0.9025 -0.746001,-0.899 -0.25,-4.25 0.725126,-3.211274 1.406994,-2.01139 2.34375,-6.28125 -0.797249,-1.704877 -1.676029,-4.495619 -2.71875,-10.9375 -0.128858,-0.796083 -0.235432,-1.595404 -0.3125,-2.375 -1.131824,-0.63931 -2.521613,-1 -4.21875,-1 -6.5885,0 -8.767,5.4045 -7.75,11.6875 1.211,7.4815 1.99625,5.15525 2.84375,8.90625 0.495999,3.351 0.489999,3.3475 -0.25,4.25 -3.509,4.276001 -18.067,3.696752 -19.125,9.15625 C 0.59325,63.92725 0,67.5 0,67.5 l 12.6875,0 z"/>
 
<path fill="#000" d="m 88.09375,67.5 c -8.70582,-2.26238 -18.346154,-4.07875 -22,-8.53125 C 65.474447,58.21345 65.136766,57.74649 65,57 c 2.440084,-0.71123 4.551144,-1.56642 5.625,-2.875 0.740001,-0.9025 0.746001,-0.899 0.25,-4.25 -0.725126,-3.21128 -1.406994,-2.01139 -2.34375,-6.28125 0.797249,-1.70488 1.676029,-4.49562 2.71875,-10.9375 0.128858,-0.79609 0.235432,-1.59541 0.3125,-2.375 1.131824,-0.63931 2.521613,-1 4.21875,-1 6.5885,0 8.767,5.4045 7.75,11.6875 -1.211,7.4815 -1.99625,5.15525 -2.84375,8.90625 -0.495999,3.351 -0.489999,3.3475 0.25,4.25 3.509,4.276 18.067,3.69675 19.125,9.15625 0.1255,0.646 0.71875,4.21875 0.71875,4.21875 l -12.6875,0 z"/>

</svg>