<svg xmlns="http://www.w3.org/2000/svg" xmlns:xlink="http://www.w3.org/1999/xlink" version="1.1" id="Layer_1" x="0px" y="0px" width="100px" height="100px" viewBox="5.0 -10.0 100.0 135.0" enable-background="new 0 0 100 100" xml:space="preserve">
<path d="M94.381,53.129c0.107-0.268,0.172-0.55,0.256-0.825c0.067-0.233,0.159-0.46,0.207-0.701c0.208-1.057,0.208-2.147,0-3.204  c-0.048-0.242-0.14-0.468-0.207-0.701c-0.084-0.276-0.148-0.558-0.256-0.825c-0.116-0.276-0.271-0.525-0.416-0.785  c-0.111-0.208-0.207-0.423-0.339-0.623c-0.3-0.452-0.644-0.873-1.027-1.255L66.574,18.183c-3.196-3.196-8.382-3.196-11.57,0  c-3.196,3.194-3.196,8.376,0,11.57l12.065,12.065H13.182C8.663,41.818,5,45.482,5,50.001c0,4.52,3.663,8.18,8.182,8.18h53.888  L55.004,70.246c-3.196,3.196-3.196,8.378,0,11.57c1.594,1.598,3.691,2.397,5.785,2.397c2.093,0,4.187-0.8,5.785-2.397l26.024-26.025  c0.384-0.383,0.728-0.803,1.027-1.254c0.132-0.2,0.228-0.416,0.339-0.623C94.109,53.654,94.265,53.404,94.381,53.129z"/></svg>