<?xml version="1.0" encoding="utf-8"?>
<!-- Generator: Adobe Illustrator 15.0.0, SVG Export Plug-In . SVG Version: 6.00 Build 0)  -->
<!DOCTYPE svg PUBLIC "-//W3C//DTD SVG 1.1//EN" "http://www.w3.org/Graphics/SVG/1.1/DTD/svg11.dtd">
<svg version="1.1" id="Layer_1" xmlns="http://www.w3.org/2000/svg" xmlns:xlink="http://www.w3.org/1999/xlink" x="0px" y="0px"
	 width="100px" height="100px" viewBox="0 0 100 100" enable-background="new 0 0 100 100" xml:space="preserve">
<path fill="#FFFFFF" d="M82.6,39.8c-0.5-1.8-1.3-3.7-2.3-5.7c1.9-2.6,4.101-5.2,6-8.1c0.601-0.8,0.601-1.7,0-2.6
	c-2.399-3.5-6.399-7.1-9.7-9.9c-0.8-0.8-1.899-0.8-2.8-0.1L65.4,19.6c-1.601-0.8-3.5-1.5-5.2-2.2L58.6,6.8C58.5,5.7,57.7,5,56.5,5
	h-13c-1.2,0-2,0.7-2.2,1.7c-0.8,3.4-1.2,7.3-1.6,10.7c-1.8,0.6-3.6,1.3-5.2,2.3l-8.1-6.2c-0.5-0.4-1.2-0.7-1.6-0.7
	c-2,0-9.8,8.7-11.3,10.6c-0.8,1-0.7,1.6,0.1,2.7c2.1,2.8,4.2,5.4,6.2,8.1c-0.9,1.9-1.6,3.4-2.2,5.4l-11,1.6C5.7,41.4,5,42.5,5,43.5
	v12.9c0,1,0.7,1.899,1.7,2.1l10.6,1.7c0.5,1.8,1.4,3.7,2.3,5.6c-1.9,2.7-4,5.2-6,8.101c-0.6,0.899-0.5,1.8,0,2.6
	c2.5,3.5,6.4,7.1,9.7,10c0.9,0.8,1.9,0.8,2.8,0.2l8.4-6.2c1.7,0.8,3.5,1.5,5.2,2.1l1.6,10.7c0.1,0.9,1,1.8,2.2,1.8h13
	c1.2,0,1.8-0.699,2.1-1.699C59.5,90,59.9,86.1,60.3,82.7c1.8-0.601,3.601-1.4,5.3-2.2l8.101,6.3c0.5,0.4,1.1,0.5,1.6,0.5
	c1.9,0,9.8-8.8,11.3-10.7C87.2,75.8,87.1,75,86.4,74c-2.101-2.9-4.2-5.5-6.2-8.4C81.1,64,81.8,62.4,82.5,60.4L93.2,58.8
	c1-0.1,1.7-1.2,1.7-2V43.6c0-0.9-0.7-1.9-1.7-2.2L82.6,39.8z M49.9,65C41.7,65,35,58.3,35,50.1C35,41.7,41.7,35,49.9,35
	c8.3,0,15,6.7,15,15.1C64.9,58.3,58.2,65,49.9,65z"/>
</svg>
