<svg xmlns="http://www.w3.org/2000/svg" xmlns:xlink="http://www.w3.org/1999/xlink" version="1.1" id="Layer_1" x="0px" y="0px" viewBox="5.0 -10.0 100.0 135.0" enable-background="new 0 0 100 100" xml:space="preserve" height="100px" width="100px">
<g>
	<path fill="#000000" d="M25.498,33.368h49.004c0.828,0,1.5-0.671,1.5-1.5s-0.672-1.5-1.5-1.5H25.498c-0.828,0-1.5,0.671-1.5,1.5   S24.67,33.368,25.498,33.368z"/>
	<path fill="#000000" d="M74.502,48.5H25.498c-0.828,0-1.5,0.671-1.5,1.5s0.672,1.5,1.5,1.5h49.004c0.828,0,1.5-0.671,1.5-1.5   S75.33,48.5,74.502,48.5z"/>
	<path fill="#000000" d="M74.502,66.632H25.498c-0.828,0-1.5,0.671-1.5,1.5s0.672,1.5,1.5,1.5h49.004c0.828,0,1.5-0.671,1.5-1.5   S75.33,66.632,74.502,66.632z"/>
</g></svg>