<svg xmlns="http://www.w3.org/2000/svg" xmlns:xlink="http://www.w3.org/1999/xlink" version="1.1" id="Your_Icon" x="0px" y="0px" width="100px" height="100px" viewBox="5.0 -10.0 100.0 135.0" enable-background="new 0 0 100 100" xml:space="preserve">
<g>
	<path fill="#ffffff" d="M78.241,74.71H14.534V32.588h21.819c0.78-0.634,1.586-1.247,2.422-1.829   c1.903-1.326,3.941-2.51,6.099-3.552H9.152v52.885h7.112h4.663h62.695V57.362l-5.382,5.406V74.71z"/>
	<path fill="#ffffff" d="M25.592,68.943c0.073-0.243,0.151-0.482,0.23-0.721c0.016-0.047,0.032-0.095,0.048-0.142   c0.079-0.229,0.162-0.455,0.247-0.678c0.016-0.041,0.032-0.082,0.049-0.123c0.083-0.215,0.17-0.426,0.26-0.636   c0.009-0.021,0.017-0.04,0.026-0.06c0.095-0.221,0.195-0.437,0.297-0.651c0.021-0.044,0.043-0.089,0.065-0.135   c0.102-0.209,0.208-0.418,0.315-0.623c0.017-0.03,0.034-0.061,0.05-0.092c0.103-0.192,0.209-0.382,0.316-0.567   c0.018-0.029,0.034-0.059,0.052-0.089c0.116-0.198,0.235-0.394,0.357-0.587c0.026-0.042,0.053-0.082,0.079-0.123   c0.125-0.192,0.25-0.386,0.381-0.572c0.013-0.019,0.026-0.037,0.039-0.056c0.124-0.178,0.25-0.353,0.379-0.525   c0.025-0.033,0.049-0.067,0.074-0.099c0.135-0.181,0.273-0.356,0.413-0.529c0.03-0.036,0.059-0.072,0.088-0.109   c0.146-0.178,0.293-0.354,0.444-0.526c0.001-0.002,0.003-0.004,0.005-0.006c0.15-0.171,0.304-0.34,0.459-0.507   c0.031-0.033,0.062-0.067,0.094-0.101c0.152-0.162,0.306-0.32,0.463-0.478c0.03-0.03,0.06-0.06,0.09-0.089   c0.152-0.15,0.306-0.298,0.462-0.444c0.015-0.014,0.03-0.028,0.045-0.043c0.166-0.153,0.333-0.304,0.503-0.453   c0.036-0.032,0.072-0.062,0.108-0.094c0.168-0.146,0.338-0.29,0.51-0.431c0.028-0.022,0.056-0.045,0.083-0.067   c0.162-0.132,0.326-0.262,0.491-0.389c0.026-0.021,0.052-0.04,0.079-0.061c0.177-0.138,0.357-0.271,0.538-0.401   c0.04-0.029,0.08-0.058,0.119-0.086c0.184-0.132,0.368-0.261,0.554-0.388c0.02-0.014,0.041-0.027,0.061-0.041   c0.177-0.119,0.354-0.235,0.534-0.352c0.035-0.022,0.07-0.045,0.105-0.067c0.188-0.12,0.378-0.238,0.57-0.354   c0.04-0.024,0.081-0.049,0.122-0.073c0.198-0.119,0.396-0.235,0.597-0.349c0.005-0.004,0.009-0.006,0.014-0.009   c0.198-0.112,0.398-0.223,0.599-0.33c0.041-0.022,0.083-0.045,0.124-0.066c0.198-0.107,0.397-0.21,0.598-0.313   c0.039-0.019,0.078-0.038,0.117-0.059c0.194-0.098,0.389-0.193,0.584-0.288c0.019-0.009,0.038-0.018,0.057-0.027   c0.208-0.1,0.416-0.194,0.625-0.291c0.045-0.021,0.09-0.041,0.135-0.061c0.207-0.095,0.415-0.186,0.624-0.274   c0.034-0.015,0.068-0.028,0.102-0.043c0.196-0.084,0.392-0.165,0.589-0.246c0.032-0.013,0.063-0.025,0.094-0.037   c0.212-0.087,0.424-0.169,0.637-0.251c0.047-0.018,0.094-0.036,0.14-0.055c0.215-0.08,0.43-0.16,0.646-0.238   c0.024-0.01,0.049-0.018,0.073-0.026c0.204-0.072,0.408-0.144,0.611-0.216c0.04-0.012,0.08-0.025,0.12-0.039   c0.215-0.074,0.431-0.146,0.646-0.214c0.046-0.016,0.092-0.03,0.138-0.046c0.222-0.07,0.444-0.141,0.667-0.207   c0.006-0.003,0.012-0.004,0.018-0.006c0.22-0.066,0.439-0.132,0.659-0.195c0.045-0.012,0.09-0.025,0.135-0.038   c0.218-0.062,0.436-0.122,0.653-0.183c0.042-0.011,0.084-0.022,0.127-0.034c0.21-0.056,0.421-0.11,0.632-0.165   c0.019-0.005,0.039-0.011,0.057-0.015c0.223-0.057,0.445-0.111,0.667-0.166c0.047-0.01,0.094-0.022,0.141-0.032   c0.219-0.053,0.437-0.104,0.656-0.153c0.036-0.009,0.07-0.017,0.106-0.023c0.205-0.047,0.41-0.091,0.615-0.135   c0.031-0.007,0.062-0.014,0.094-0.021c0.219-0.047,0.438-0.092,0.656-0.135c0.047-0.01,0.093-0.02,0.14-0.028   c0.22-0.043,0.438-0.085,0.657-0.127c0.024-0.005,0.049-0.008,0.074-0.014c0.205-0.037,0.41-0.075,0.615-0.111   c0.039-0.007,0.078-0.014,0.117-0.021c0.215-0.037,0.428-0.073,0.643-0.108c0.044-0.007,0.089-0.014,0.132-0.021   c0.22-0.035,0.439-0.07,0.657-0.104c0.005-0.001,0.008-0.001,0.012-0.001c0.218-0.033,0.433-0.064,0.646-0.095   c0.043-0.005,0.085-0.012,0.127-0.019c0.209-0.03,0.42-0.057,0.628-0.084c0.038-0.007,0.079-0.01,0.118-0.017   c0.201-0.026,0.403-0.051,0.604-0.076c0.016-0.002,0.033-0.003,0.049-0.006c0.21-0.026,0.419-0.05,0.626-0.074   c0.043-0.004,0.086-0.009,0.128-0.015c0.205-0.022,0.406-0.044,0.608-0.064c0.031-0.003,0.063-0.007,0.095-0.01   c0.19-0.02,0.38-0.038,0.569-0.056c0.025-0.002,0.052-0.005,0.077-0.008c0.201-0.018,0.399-0.036,0.598-0.053   c0.039-0.003,0.078-0.007,0.118-0.01c0.198-0.017,0.396-0.033,0.59-0.049c0.02-0.001,0.035-0.002,0.054-0.003   c0.186-0.015,0.37-0.028,0.554-0.041c0.032-0.002,0.062-0.005,0.094-0.007c0.188-0.014,0.375-0.025,0.559-0.038   c0.038-0.002,0.075-0.003,0.113-0.007c0.188-0.011,0.375-0.022,0.56-0.032c0.004-0.001,0.007-0.001,0.011-0.001   c0.184-0.01,0.366-0.019,0.547-0.028c0.031-0.001,0.065-0.003,0.098-0.004c0.177-0.009,0.351-0.016,0.523-0.024   c0.029-0.001,0.06-0.002,0.09-0.003c0.17-0.007,0.338-0.014,0.504-0.019c0.009,0,0.018-0.001,0.026-0.001   c0.173-0.005,0.341-0.01,0.508-0.016c0.032-0.001,0.062-0.001,0.093-0.002c0.164-0.004,0.324-0.008,0.484-0.011   c0.021-0.001,0.042-0.001,0.062-0.002c0.152-0.003,0.302-0.005,0.449-0.008c0.018,0,0.033-0.001,0.049-0.001   c0.156-0.002,0.309-0.006,0.458-0.006c0.025-0.001,0.051-0.001,0.076-0.001c0.15-0.002,0.299-0.003,0.441-0.005   c0.011,0,0.019,0,0.027,0c0.14,0,0.276,0,0.41,0c0.013,0,0.026,0,0.037,0c0.009,0,0.016,0,0.023,0c0.122,0,0.243,0,0.36,0   c0.017,0,0.032,0,0.049,0c0.104,0.001,0.206,0.002,0.305,0.002c0.022,0,0.045,0,0.067,0c0.113,0.002,0.224,0.003,0.332,0.003   c0.004,0,0.008,0,0.013,0.001c0.102,0.001,0.203,0.002,0.3,0.005c0.021,0,0.041,0.001,0.062,0.001   c0.202,0.003,0.394,0.007,0.574,0.01c0.018,0.001,0.037,0.002,0.054,0.002c0.085,0.001,0.168,0.003,0.247,0.005   c0.003,0,0.007,0.001,0.01,0.001c0.085,0.001,0.166,0.003,0.244,0.007c0.015,0,0.028,0,0.044,0   c0.071,0.003,0.143,0.005,0.212,0.007c0.001,0,0.004,0,0.005,0c0.073,0.003,0.143,0.005,0.211,0.007c0.01,0,0.019,0.001,0.03,0.001   c0.056,0.001,0.108,0.003,0.158,0.004c0.029,0.001,0.056,0.003,0.085,0.003c0.043,0.002,0.085,0.003,0.126,0.004   c0.037,0.001,0.072,0.002,0.106,0.003c0.012,0,0.022,0.001,0.033,0.001c0.041,0.001,0.078,0.002,0.113,0.003   c0.006,0,0.012,0.001,0.018,0.001c0.027,0,0.053,0.001,0.076,0.001c0.007,0,0.014,0,0.021,0c0.026,0.001,0.05,0.001,0.07,0.001   l0.017,15.437L96,38.317L68.922,11.244l0.012,15.334C53.41,26.578,25.592,33.81,25.592,68.943z"/>
</g></svg>