<svg xmlns="http://www.w3.org/2000/svg" xmlns:xlink="http://www.w3.org/1999/xlink" version="1.1" x="0px" y="0px" width="100px" height="100px" viewBox="5.0 -10.0 100.0 135.0" enable-background="new 0 0 100 100" xml:space="preserve">
	<path transform="translate(11)" fill="#000000" d="M24.777,38.979h-6.758c-1.116,0-2.021,0.905-2.021,2.021v41.355c0,1.116,0.905,2.021,2.021,2.021h40.753   c1.116,0,2.021-0.905,2.021-2.021V41c0-1.116-0.905-2.021-2.021-2.021H43.326V28.354H62.77c4.776,0,8.648,3.872,8.648,8.648v49.351   c0,4.776-3.872,8.648-8.648,8.648H14.021c-4.776,0-8.648-3.872-8.648-8.648V37.002c0-4.776,3.872-8.648,8.648-8.648h10.756V38.979z   "/>
	<path transform="translate(11)" fill= "#000000" d="M75.223,61.021h6.758c1.116,0,2.021-0.905,2.021-2.021V17.646c0-1.116-0.905-2.021-2.021-2.021H41.228   c-1.116,0-2.021,0.905-2.021,2.021V59c0,1.116,0.905,2.021,2.021,2.021h15.446v10.625H37.23c-4.776,0-8.648-3.872-8.648-8.648   V13.648C28.582,8.872,32.454,5,37.23,5h48.749c4.776,0,8.648,3.872,8.648,8.648v49.351c0,4.776-3.872,8.648-8.648,8.648H75.223   V61.021z"/>
</svg>