<svg xmlns="http://www.w3.org/2000/svg" xmlns:xlink="http://www.w3.org/1999/xlink" version="1.1" id="Layer_1" x="0px" y="0px" width="100px" height="96px" viewBox="5.0 -9.6 100.0 129.6" enable-background="new 0 0 100 96" xml:space="preserve">
<path d="M26.672,17.764C26.14,16.116,24.604,15,22.868,15c-1.732,0-3.264,1.116-3.8,2.756l-18.872,58  c-0.68,2.096,0.468,4.36,2.572,5.049C3.18,80.936,3.596,81,4.008,81c1.684,0,3.252-1.072,3.804-2.756L12.12,65h21.508l4.304,13.236  c0.684,2.1,2.932,3.252,5.04,2.576c2.096-0.681,3.248-2.937,2.568-5.045L26.672,17.764z M14.712,57l8.156-25.072L31.02,57H14.712z"/>
<path d="M95.8,73H64.973L99.1,23.264c0.84-1.232,0.928-2.82,0.24-4.132S97.284,17,95.8,17h-32c-2.208,0-4,1.788-4,4s1.792,4,4,4  h24.408L54.08,74.736c-0.84,1.231-0.932,2.812-0.248,4.123C54.527,80.18,55.893,81,57.376,81H95.8c2.212,0,4-1.788,4-4  S98,73,95.8,73L95.8,73z"/>
<path d="M58.584,55.624l8-7.756c0.768-0.752,1.216-1.792,1.216-2.88c0-1.084-0.436-2.112-1.216-2.876l-8-7.752  c-1.588-1.54-4.12-1.5-5.656,0.088c-1.539,1.584-1.496,4.112,0.084,5.656l0.916,0.88H43.804c-2.208,0-4,1.788-4,4s1.792,4,4,4  h10.124l-0.916,0.875c-1.584,1.541-1.623,4.072-0.084,5.66c0.78,0.813,1.828,1.225,2.872,1.225  C56.8,56.752,57.809,56.376,58.584,55.624z"/></svg>