<?xml version="1.0" encoding="UTF-8"?>
<svg xmlns="http://www.w3.org/2000/svg" height="1000" width="928"><path d="M911 555.5l-133 56q-8 22 -12 31l55 133 -79 78 -135 -52q-9 4 -31 12l-55 133l-112 0l-56 -132q-11 -4 -33 -13l-132 54 -78 -78 53 -134q-1 -3 -4.5 -9.5t-6 -12 -3.5 -10.5l-131 -55l0 -112l131 -56 14 -33 -54 -132 78 -79 133 54q22 -9 33 -13l55 -132l112 0l56 132q14 5 31 13l133 -55 80 79 -54 135q6 12 12 30l133 56l0 112zm-447.5 111q69.5 0 118.5 -48.5t49 -118 -49 -119 -118.5 -49.5 -118.5 49.5 -49 119 49 118 118.5 48.5z" fill="#000000"/></svg>
